<svg xmlns="http://www.w3.org/2000/svg" version="1.1" xmlns:xlink="http://www.w3.org/1999/xlink" xmlns:svgjs="http://svgjs.dev/svgjs" width="1440" height="560" preserveAspectRatio="none" viewBox="0 0 1440 560"><g mask="url(&quot;#SvgjsMask1042&quot;)" fill="none"><rect width="1440" height="560" x="0" y="0" fill="rgba(225, 215, 203, 1)"></rect><path d="M643.3160291096789 133.81410294605996L582.6398837728291 269.74616548280767 712.2712385429687 258.4048915029132z" fill="rgba(210, 194, 176, 1)" class="triangle-float1"></path><path d="M229.83828328783324 62.614614196679575L194.2448714428844-21.23820930598219 110.39204794022265 14.35520253896663 145.98545978517149 98.20802604162839z" fill="rgba(210, 194, 176, 1)" class="triangle-float3"></path><path d="M904.8925052314898 137.3389322584795L931.0644838010612 32.368859618733964 826.0944111613156 6.196881049162613 799.9224325917443 111.16695368890817z" fill="rgba(210, 194, 176, 1)" class="triangle-float3"></path><path d="M814.2807654036342 391.7402461276805L822.1489954548364 466.6014544444842 930.5066929044408 417.36850520927914z" fill="rgba(210, 194, 176, 1)" class="triangle-float1"></path><path d="M371.064,544.775C396.18,546.607,420.828,532.593,432.546,510.302C443.61,489.255,437.404,463.868,423.877,444.313C412.178,427.4,391.621,422.002,371.064,421.419C349.094,420.796,323.958,422.23,312.798,441.165C301.537,460.272,312.501,483.007,323.372,502.339C334.551,522.218,348.317,543.116,371.064,544.775" fill="rgba(210, 194, 176, 1)" class="triangle-float1"></path><path d="M1137.4075410909397 203.64453583541234L1012.7231927247188 116.33961521261904 925.4182721019256 241.02396357883993 1050.1026204681464 328.32888420163323z" fill="rgba(210, 194, 176, 1)" class="triangle-float1"></path><path d="M1041.914,539.086C1077.115,538.982,1106.285,515.505,1124.534,485.404C1143.61,453.939,1154.561,415.153,1136.479,383.106C1118.158,350.636,1079.142,336.981,1041.914,338.978C1008.046,340.795,980.185,362.901,963.43,392.391C946.905,421.477,942.663,456.398,958.444,485.895C975.125,517.074,1006.553,539.19,1041.914,539.086" fill="rgba(210, 194, 176, 1)" class="triangle-float2"></path><path d="M1368.158,510.623C1391.132,510.806,1406.819,490.652,1418.887,471.101C1431.853,450.095,1446.341,425.177,1434.148,403.713C1421.878,382.113,1392.951,380.235,1368.158,381.799C1346.548,383.162,1325.715,392.307,1315.17,411.219C1304.87,429.69,1308.858,451.642,1318.807,470.305C1329.517,490.396,1345.392,510.442,1368.158,510.623" fill="rgba(210, 194, 176, 1)" class="triangle-float1"></path><path d="M745.843681093103 303.36511359736255L791.3838052156952 396.7362050319115 884.7548966502441 351.1960809093192 839.2147725276519 257.82498947477035z" fill="rgba(210, 194, 176, 1)" class="triangle-float3"></path></g><defs><mask id="SvgjsMask1042"><rect width="1440" height="560" fill="#ffffff"></rect></mask><style>
                @keyframes float1 {
                    0%{transform: translate(0, 0)}
                    50%{transform: translate(-10px, 0)}
                    100%{transform: translate(0, 0)}
                }

                .triangle-float1 {
                    animation: float1 5s infinite;
                }

                @keyframes float2 {
                    0%{transform: translate(0, 0)}
                    50%{transform: translate(-5px, -5px)}
                    100%{transform: translate(0, 0)}
                }

                .triangle-float2 {
                    animation: float2 4s infinite;
                }

                @keyframes float3 {
                    0%{transform: translate(0, 0)}
                    50%{transform: translate(0, -10px)}
                    100%{transform: translate(0, 0)}
                }

                .triangle-float3 {
                    animation: float3 6s infinite;
                }
            </style></defs></svg>