<svg xmlns="http://www.w3.org/2000/svg" version="1.1" xmlns:xlink="http://www.w3.org/1999/xlink" xmlns:svgjs="http://svgjs.dev/svgjs" width="1440" height="560" preserveAspectRatio="none" viewBox="0 0 1440 560"><g mask="url(&quot;#SvgjsMask1000&quot;)" fill="none"><rect width="1440" height="560" x="0" y="0" fill="#0e2a47"></rect><path d="M68.43 403.39a44.82 44.82 0 1 0-63.87-62.89z" fill="#037b0b"></path><path d="M575.29 394.71L624.91 394.71L624.91 444.33L575.29 444.33z" fill="#d3b714"></path><path d="M336.68 61.92 a10.52 10.52 0 1 0 21.04 0 a10.52 10.52 0 1 0 -21.04 0z" stroke="#d3b714"></path><path d="M1270.97 21.28L1278.57 21.28L1278.57 43.65L1270.97 43.65z" stroke="#037b0b"></path><path d="M833.97 415.13a34.71 34.71 0 1 0 26.85 64.01z" fill="#d3b714"></path><path d="M423.26 554.95a33.98 33.98 0 1 0-38.61-55.92z" fill="#e73635"></path><path d="M704.66 352.8 a1.11 1.11 0 1 0 2.22 0 a1.11 1.11 0 1 0 -2.22 0z" fill="#037b0b"></path><path d="M229.1 498.1a6.16 6.16 0 1 0 1.99-12.16z" fill="#037b0b"></path><path d="M904.06 145.67a42.4 42.4 0 1 0 73.25-42.72z" stroke="#e73635"></path><path d="M550.71 294.23L555.84 294.23L555.84 339.88L550.71 339.88z" stroke="#e73635"></path><path d="M1032.41 487.3L1055.85 487.3L1055.85 497.16L1032.41 497.16z" fill="#e73635"></path><path d="M1320.71 388.43 a19.85 19.85 0 1 0 39.7 0 a19.85 19.85 0 1 0 -39.7 0z" stroke="#037b0b"></path><path d="M220.41 399.31L258.14 399.31L258.14 425.07L220.41 425.07z" stroke="#e73635"></path><path d="M1188.24 42.84a8.78 8.78 0 1 0 17.03 4.28z" fill="#e73635"></path><path d="M322.07 314.51L362.23 314.51L362.23 354.67L322.07 354.67z" stroke="#e73635"></path><path d="M317.58 79.56L325.92 79.56L325.92 87.9L317.58 87.9z" stroke="#e73635"></path><path d="M1361.92 283.4 a43.87 43.87 0 1 0 87.74 0 a43.87 43.87 0 1 0 -87.74 0z" fill="#e73635"></path><path d="M1328.89 236.53L1342.12 236.53L1342.12 249.76L1328.89 249.76z" stroke="#e73635"></path><path d="M1236.03 556.51L1256.77 556.51L1256.77 589.56L1236.03 589.56z" fill="#e73635"></path><path d="M710.19 419.36a47.89 47.89 0 1 0 93.78 19.44z" stroke="#e73635"></path><path d="M440.84 215.84L496.29 215.84L496.29 271.29L440.84 271.29z" stroke="#d3b714"></path><path d="M1084.64 466.59L1134.64 466.59L1134.64 482.22L1084.64 482.22z" fill="#d3b714"></path><path d="M1151.24 499.49 a42.73 42.73 0 1 0 85.46 0 a42.73 42.73 0 1 0 -85.46 0z" stroke="#037b0b"></path><path d="M452.05 228.13a14.08 14.08 0 1 0 23.3-15.82z" fill="#037b0b"></path><path d="M718.05 468.55 a42.95 42.95 0 1 0 85.9 0 a42.95 42.95 0 1 0 -85.9 0z" fill="#037b0b"></path><path d="M470.87 477.67 a28.7 28.7 0 1 0 57.4 0 a28.7 28.7 0 1 0 -57.4 0z" stroke="#037b0b"></path><path d="M296.82 532.61 a36.97 36.97 0 1 0 73.94 0 a36.97 36.97 0 1 0 -73.94 0z" fill="#e73635"></path><path d="M1300.24 414.26 a28.43 28.43 0 1 0 56.86 0 a28.43 28.43 0 1 0 -56.86 0z" stroke="#037b0b"></path><path d="M571.41 133.28 a46.72 46.72 0 1 0 93.44 0 a46.72 46.72 0 1 0 -93.44 0z" stroke="#e73635"></path><path d="M665.01 3.68L675.68 3.68L675.68 14.35L665.01 14.35z" stroke="#037b0b"></path><path d="M1080.83 357.29L1110.86 357.29L1110.86 383.2L1080.83 383.2z" stroke="#d3b714"></path><path d="M70.43 57.91L103.46 57.91L103.46 70.47L70.43 70.47z" stroke="#d3b714"></path><path d="M1066.98 421.96 a10.81 10.81 0 1 0 21.62 0 a10.81 10.81 0 1 0 -21.62 0z" fill="#e73635"></path></g><defs><mask id="SvgjsMask1000"><rect width="1440" height="560" fill="#ffffff"></rect></mask></defs></svg>